<?xml version="1.0" encoding="utf-8"?>
<!-- Generator: Adobe Illustrator 16.0.0, SVG Export Plug-In . SVG Version: 6.00 Build 0)  -->
<!DOCTYPE svg PUBLIC "-//W3C//DTD SVG 1.1//EN" "http://www.w3.org/Graphics/SVG/1.1/DTD/svg11.dtd">
<svg version="1.1" id="Layer_1" xmlns="http://www.w3.org/2000/svg" xmlns:xlink="http://www.w3.org/1999/xlink" x="0px" y="0px"
	 width="468px" height="323.022px" viewBox="0 0 468 323.022" enable-background="new 0 0 468 323.022" xml:space="preserve">
<g>
	<g>
		<g>
			<path fill="#FFFFFF" d="M151.043,43.947V8.609h14.036c5.497,0,9.594,1.464,12.294,4.391s4.049,7.365,4.049,13.315
				c0,3.23-0.498,6.079-1.493,8.539c-0.998,2.464-2.445,4.448-4.345,5.95c-1.426,1.122-3.05,1.926-4.865,2.412
				c-1.814,0.49-4.36,0.731-7.637,0.731H151.043z M158.268,37.564h5.91c3.421,0,5.898-0.881,7.434-2.647
				c1.53-1.767,2.296-4.635,2.296-8.602c0-3.953-0.713-6.855-2.143-8.711c-1.425-1.855-3.654-2.782-6.687-2.782h-6.812V37.564z"/>
			<path fill="#FFFFFF" d="M183.825,44.111V8.581h17.224c3.875,0,6.744,0.828,8.611,2.483c1.863,1.656,2.797,4.188,2.797,7.596
				c0,2.174-0.452,3.981-1.363,5.429c-0.909,1.446-2.213,2.438-3.918,2.968c1.542,0.546,2.641,1.381,3.292,2.508
				c0.651,1.126,1.023,2.877,1.119,5.26l0.148,4.198c0,0.029,0,0.077,0,0.14c0.047,2.128,0.504,3.413,1.374,3.861v1.088h-8.008
				c-0.26-0.501-0.454-1.112-0.592-1.849c-0.135-0.731-0.222-1.604-0.252-2.614l-0.097-3.74c-0.08-2.205-0.494-3.692-1.244-4.462
				c-0.746-0.772-2.095-1.157-4.04-1.157h-7.743v13.822H183.825z M191.134,24.115h8.589c1.865,0,3.237-0.38,4.113-1.136
				c0.877-0.753,1.315-1.944,1.315-3.567c0-1.545-0.427-2.715-1.281-3.514c-0.852-0.795-2.122-1.192-3.812-1.192h-8.925V24.115z"/>
		</g>
		<g>
			<path fill="#FFFFFF" d="M228.544,45.142V10.053h12.912c2.096,0,3.694,0.102,4.787,0.309c1.097,0.206,2.074,0.545,2.931,1.025
				c1.43,0.775,2.526,1.93,3.288,3.452c0.762,1.525,1.144,3.313,1.144,5.362c0,1.955-0.382,3.673-1.144,5.168
				s-1.874,2.684-3.336,3.574c-0.842,0.508-1.829,0.869-2.965,1.083c-1.137,0.216-3.007,0.323-5.612,0.323h-7.241v14.792H228.544z
				 M233.308,26.108h8.005c2.778,0,4.717-0.445,5.825-1.334c1.103-0.89,1.656-2.417,1.656-4.573c0-2.08-0.549-3.574-1.647-4.482
				c-1.095-0.903-2.921-1.355-5.478-1.355h-8.362V26.108z"/>
			<path fill="#FFFFFF" d="M257.844,9.904h13.997c2.271,0,3.941,0.096,5.014,0.284c1.07,0.193,2.026,0.51,2.879,0.958
				c1.521,0.813,2.677,1.944,3.467,3.398c0.794,1.452,1.188,3.158,1.188,5.117c0,1.902-0.414,3.524-1.249,4.872
				c-0.831,1.348-2.075,2.402-3.724,3.168c1.402,0.385,2.405,1.03,3.002,1.938c0.597,0.912,0.97,2.447,1.114,4.617l0.419,5.815
				c0.082,1.243,0.247,2.172,0.501,2.783c0.254,0.616,0.635,1.05,1.141,1.31v0.978h-5.664c-0.457-0.732-0.777-2.306-0.955-4.713
				v-0.145l-0.294-4.592c-0.163-2.36-0.679-3.889-1.546-4.592c-0.866-0.702-3.03-1.054-6.494-1.054h-7.943v15.096h-4.853V9.904z
				 M262.648,14.039v11.938h8.382c3.022,0,5.16-0.476,6.412-1.434c1.248-0.958,1.872-2.552,1.872-4.785
				c0-2.09-0.587-3.562-1.762-4.426c-1.179-0.86-3.351-1.293-6.522-1.293H262.648z"/>
			<path fill="#FFFFFF" d="M287.561,27.051c0-5.67,1.476-10.104,4.432-13.296c2.953-3.194,7.044-4.79,12.27-4.79
				c5.209,0,9.283,1.591,12.223,4.78c2.937,3.185,4.409,7.62,4.409,13.306c0,5.675-1.473,10.108-4.409,13.3
				c-2.939,3.192-7.014,4.791-12.223,4.791c-5.226,0-9.316-1.599-12.27-4.791C289.036,37.16,287.561,32.726,287.561,27.051z
				 M292.505,27.051c0,4.4,1.041,7.836,3.12,10.315c2.08,2.479,4.958,3.716,8.637,3.716c3.665,0,6.527-1.237,8.59-3.716
				c2.063-2.479,3.096-5.916,3.096-10.315c0-4.412-1.032-7.854-3.096-10.326c-2.063-2.47-4.925-3.704-8.59-3.704
				c-3.679,0-6.557,1.234-8.637,3.704C293.546,19.197,292.505,22.639,292.505,27.051z"/>
			<path fill="#FFFFFF" d="M404.534,27.051c0-5.67,1.478-10.104,4.434-13.296c2.953-3.194,7.044-4.79,12.269-4.79
				c5.21,0,9.284,1.591,12.224,4.78c2.938,3.185,4.406,7.62,4.406,13.306c0,5.675-1.468,10.108-4.406,13.3
				c-2.939,3.192-7.014,4.791-12.224,4.791c-5.225,0-9.315-1.599-12.269-4.791C406.012,37.16,404.534,32.726,404.534,27.051z
				 M409.48,27.051c0,4.4,1.041,7.836,3.119,10.315c2.077,2.479,4.959,3.716,8.637,3.716c3.666,0,6.528-1.237,8.591-3.716
				c2.063-2.479,3.096-5.916,3.096-10.315c0-4.412-1.032-7.854-3.096-10.326c-2.063-2.47-4.925-3.704-8.591-3.704
				c-3.678,0-6.56,1.234-8.637,3.704C410.521,19.197,409.48,22.639,409.48,27.051z"/>
			<path fill="#FFFFFF" d="M322.925,32.668h4.643c-0.016,0.178-0.028,0.366-0.035,0.568c-0.008,0.202-0.009,0.5-0.009,0.905
				c0,2.354,0.439,4.058,1.328,5.112c0.885,1.059,2.31,1.583,4.277,1.583c1.226,0,2.24-0.216,3.044-0.649
				c0.808-0.438,1.445-1.112,1.912-2.032c0.209-0.438,0.355-1.044,0.447-1.824c0.087-0.786,0.135-2.099,0.135-3.953V8.595h4.855
				v25.739c0,3.678-0.838,6.398-2.517,8.16c-1.674,1.767-4.267,2.648-7.778,2.648c-3.453,0-6.038-0.91-7.761-2.73
				c-1.727-1.825-2.588-4.563-2.588-8.218c0-0.404,0.003-0.717,0.013-0.934C322.899,33.043,322.91,32.846,322.925,32.668z"/>
			<path fill="#FFFFFF" d="M349.069,45.142V9.789h25.204v4.39h-20.451v10.562h18.892v4.125h-18.892v11.86h20.857v4.415H349.069z"/>
			<path fill="#FFFFFF" d="M387.017,45.142V14.063h-11.166V9.764h27.161v4.299h-11.17v31.078H387.017z"/>
			<path fill="#FFFFFF" d="M440.276,32.433h4.681c0.049,2.585,0.911,4.65,2.583,6.186c1.673,1.535,3.91,2.301,6.706,2.301
				c2.766,0,4.944-0.583,6.537-1.742c1.594-1.166,2.39-2.754,2.39-4.756c0-2.731-2.994-4.809-8.975-6.234
				c-0.356-0.079-0.632-0.144-0.823-0.194c-4.853-1.146-8.056-2.428-9.619-3.844c-1.56-1.416-2.339-3.423-2.339-6.027
				c0-3.185,1.163-5.743,3.489-7.676c2.331-1.93,5.429-2.9,9.292-2.9c3.944,0,7.05,1.017,9.313,3.046
				c2.265,2.026,3.413,4.814,3.445,8.352l-4.632,0.029c-0.162-2.395-0.975-4.232-2.438-5.51c-1.46-1.276-3.463-1.916-6.003-1.916
				c-2.379,0-4.276,0.522-5.7,1.567c-1.421,1.04-2.134,2.426-2.134,4.16c0,2.763,2.943,4.826,8.829,6.184
				c0.872,0.214,1.545,0.373,2.013,0.484l0.512,0.125c3.846,0.919,6.402,1.916,7.664,2.98c0.953,0.809,1.68,1.792,2.183,2.949
				c0.499,1.155,0.751,2.447,0.751,3.867c0,3.441-1.232,6.186-3.7,8.222c-2.464,2.036-5.8,3.058-10.003,3.058
				c-4.335,0-7.71-1.093-10.128-3.289C441.752,39.663,440.454,36.524,440.276,32.433z"/>
		</g>
	</g>
	<g>
		<path fill="#EC2227" d="M46.843,27.986c16.197,0,31.162,5.236,43.324,14.093L47.176,0L1.896,43.298
			C14.337,33.704,29.918,27.986,46.843,27.986z"/>
		<path fill="#FFFFFF" d="M92.114,51.709c16.196,0,31.163-5.239,43.325-14.097L92.446,79.693L47.167,36.394
			C59.608,45.989,75.189,51.709,92.114,51.709z"/>
	</g>
</g>
<g>
	<g>
		<g>
			<path fill="#FFFFFF" d="M75.533,103.246V85.35h7.108c2.783,0,4.858,0.741,6.226,2.224c1.368,1.482,2.051,3.73,2.051,6.743
				c0,1.636-0.252,3.078-0.756,4.324c-0.505,1.248-1.238,2.252-2.2,3.013c-0.722,0.568-1.544,0.976-2.464,1.222
				c-0.918,0.248-2.208,0.37-3.868,0.37H75.533z M79.192,100.014h2.993c1.732,0,2.987-0.446,3.765-1.341
				c0.775-0.895,1.163-2.347,1.163-4.356c0-2.002-0.361-3.472-1.085-4.412c-0.722-0.94-1.851-1.409-3.386-1.409h-3.45V100.014z"/>
			<path fill="#FFFFFF" d="M92.135,103.33V85.335h8.723c1.962,0,3.415,0.419,4.361,1.258c0.943,0.839,1.417,2.121,1.417,3.847
				c0,1.101-0.229,2.016-0.69,2.749c-0.46,0.732-1.121,1.235-1.984,1.503c0.781,0.276,1.337,0.7,1.667,1.27
				c0.33,0.571,0.519,1.458,0.566,2.664l0.075,2.126c0,0.015,0,0.039,0,0.071c0.024,1.078,0.255,1.728,0.695,1.955v0.551h-4.055
				c-0.132-0.254-0.23-0.563-0.3-0.937c-0.068-0.37-0.112-0.812-0.128-1.324l-0.049-1.894c-0.041-1.117-0.25-1.87-0.63-2.26
				c-0.378-0.391-1.061-0.586-2.046-0.586h-3.921v7H92.135z M95.836,93.203h4.35c0.944,0,1.639-0.192,2.083-0.576
				c0.444-0.381,0.666-0.984,0.666-1.806c0-0.783-0.216-1.375-0.648-1.779c-0.432-0.403-1.075-0.604-1.93-0.604h-4.52V93.203z"/>
		</g>
		<g>
			<path fill="#FFFFFF" d="M114.78,103.851v-17.77h6.539c1.062,0,1.871,0.051,2.424,0.156c0.556,0.104,1.051,0.276,1.484,0.519
				c0.724,0.393,1.279,0.978,1.665,1.748c0.386,0.772,0.579,1.678,0.579,2.716c0,0.99-0.193,1.86-0.579,2.617
				s-0.949,1.359-1.689,1.81c-0.426,0.257-0.926,0.44-1.501,0.548c-0.576,0.11-1.522,0.164-2.842,0.164h-3.667v7.491H114.78z
				 M117.193,94.212h4.054c1.407,0,2.389-0.226,2.95-0.675c0.559-0.451,0.839-1.224,0.839-2.316c0-1.053-0.278-1.81-0.834-2.27
				c-0.554-0.457-1.479-0.686-2.774-0.686h-4.234V94.212z"/>
			<path fill="#FFFFFF" d="M129.618,86.006h7.088c1.15,0,1.996,0.049,2.539,0.144c0.542,0.098,1.026,0.258,1.458,0.485
				c0.771,0.412,1.356,0.984,1.756,1.721c0.402,0.735,0.602,1.6,0.602,2.591c0,0.963-0.21,1.785-0.633,2.467
				c-0.421,0.683-1.051,1.217-1.886,1.604c0.71,0.195,1.218,0.521,1.521,0.981c0.302,0.462,0.491,1.239,0.564,2.338l0.212,2.945
				c0.042,0.629,0.125,1.1,0.253,1.409c0.129,0.312,0.322,0.532,0.578,0.663v0.495h-2.868c-0.231-0.371-0.394-1.168-0.484-2.387
				v-0.073l-0.149-2.326c-0.083-1.195-0.344-1.969-0.783-2.326c-0.438-0.355-1.535-0.534-3.289-0.534h-4.023v7.645h-2.458V86.006z
				 M132.051,88.1v6.046h4.245c1.531,0,2.613-0.241,3.247-0.726c0.632-0.485,0.948-1.292,0.948-2.423
				c0-1.059-0.297-1.804-0.892-2.242c-0.597-0.436-1.697-0.655-3.303-0.655H132.051z"/>
			<path fill="#FFFFFF" d="M144.667,94.69c0-2.872,0.748-5.117,2.245-6.734c1.495-1.618,3.567-2.425,6.213-2.425
				c2.638,0,4.701,0.805,6.19,2.42c1.487,1.613,2.233,3.859,2.233,6.739c0,2.874-0.746,5.119-2.233,6.735
				c-1.489,1.616-3.552,2.426-6.19,2.426c-2.646,0-4.718-0.81-6.213-2.426C145.415,99.809,144.667,97.563,144.667,94.69z
				 M147.171,94.69c0,2.228,0.527,3.968,1.58,5.224c1.054,1.255,2.511,1.882,4.374,1.882c1.856,0,3.306-0.626,4.35-1.882
				c1.045-1.255,1.568-2.996,1.568-5.224c0-2.235-0.523-3.978-1.568-5.229c-1.044-1.251-2.494-1.876-4.35-1.876
				c-1.863,0-3.32,0.625-4.374,1.876C147.699,90.712,147.171,92.455,147.171,94.69z"/>
			<path fill="#FFFFFF" d="M203.906,94.69c0-2.872,0.749-5.117,2.245-6.734c1.496-1.618,3.567-2.425,6.213-2.425
				c2.638,0,4.702,0.805,6.19,2.42c1.488,1.613,2.231,3.859,2.231,6.739c0,2.874-0.743,5.119-2.231,6.735
				c-1.489,1.616-3.552,2.426-6.19,2.426c-2.646,0-4.718-0.81-6.213-2.426C204.655,99.809,203.906,97.563,203.906,94.69z
				 M206.411,94.69c0,2.228,0.527,3.968,1.58,5.224s2.512,1.882,4.374,1.882c1.856,0,3.306-0.626,4.351-1.882
				c1.045-1.255,1.568-2.996,1.568-5.224c0-2.235-0.523-3.978-1.568-5.229c-1.044-1.251-2.494-1.876-4.351-1.876
				c-1.862,0-3.322,0.625-4.374,1.876C206.938,90.712,206.411,92.455,206.411,94.69z"/>
			<path fill="#FFFFFF" d="M162.577,97.534h2.351c-0.008,0.09-0.014,0.186-0.018,0.288c-0.004,0.102-0.004,0.253-0.004,0.458
				c0,1.192,0.223,2.055,0.673,2.589c0.448,0.536,1.169,0.802,2.166,0.802c0.621,0,1.135-0.109,1.542-0.329
				c0.409-0.222,0.732-0.563,0.968-1.029c0.106-0.222,0.18-0.529,0.227-0.924c0.044-0.398,0.068-1.063,0.068-2.001V85.343h2.459
				v13.035c0,1.863-0.424,3.24-1.274,4.132c-0.848,0.895-2.161,1.341-3.939,1.341c-1.749,0-3.058-0.461-3.93-1.382
				c-0.874-0.924-1.311-2.311-1.311-4.162c0-0.205,0.001-0.363,0.006-0.473C162.564,97.724,162.57,97.624,162.577,97.534z"/>
			<path fill="#FFFFFF" d="M175.817,103.851V85.947h12.764v2.224h-10.357v5.349h9.567v2.089h-9.567v6.006h10.563v2.236H175.817z"/>
			<path fill="#FFFFFF" d="M195.035,103.851V88.112h-5.655v-2.177h13.755v2.177h-5.657v15.739H195.035z"/>
			<path fill="#FFFFFF" d="M222.007,97.415h2.37c0.025,1.309,0.461,2.355,1.308,3.133c0.847,0.777,1.98,1.165,3.396,1.165
				c1.401,0,2.504-0.295,3.311-0.882c0.807-0.59,1.21-1.395,1.21-2.409c0-1.383-1.516-2.435-4.545-3.157
				c-0.181-0.041-0.32-0.073-0.417-0.099c-2.458-0.58-4.08-1.229-4.872-1.947c-0.79-0.717-1.184-1.733-1.184-3.052
				c0-1.613,0.589-2.909,1.767-3.887c1.181-0.978,2.75-1.469,4.706-1.469c1.998,0,3.57,0.515,4.716,1.543
				c1.147,1.026,1.729,2.438,1.745,4.229l-2.346,0.015c-0.082-1.213-0.494-2.143-1.235-2.791c-0.74-0.646-1.754-0.97-3.04-0.97
				c-1.205,0-2.166,0.265-2.887,0.793c-0.72,0.527-1.081,1.229-1.081,2.106c0,1.399,1.49,2.444,4.471,3.132
				c0.441,0.108,0.782,0.188,1.019,0.245l0.259,0.063c1.948,0.465,3.242,0.97,3.881,1.509c0.482,0.41,0.851,0.907,1.105,1.493
				c0.253,0.585,0.38,1.239,0.38,1.958c0,1.743-0.624,3.133-1.874,4.164c-1.248,1.031-2.938,1.548-5.066,1.548
				c-2.195,0-3.904-0.553-5.129-1.666C222.754,101.077,222.097,99.487,222.007,97.415z"/>
		</g>
	</g>
	<g>
		<path fill="#EC2227" d="M22.764,95.163c8.202,0,15.781,2.652,21.94,7.137L22.932,80.99L0.001,102.917
			C6.301,98.059,14.192,95.163,22.764,95.163z"/>
		<path fill="#FFFFFF" d="M45.69,107.177c8.202,0,15.781-2.653,21.94-7.139l-21.772,21.31L22.927,99.421
			C29.228,104.28,37.119,107.177,45.69,107.177z"/>
	</g>
</g>
<g>
	<g>
		<g>
			<path d="M75.533,294.28v-17.896h7.108c2.783,0,4.858,0.742,6.226,2.225c1.368,1.481,2.051,3.729,2.051,6.742
				c0,1.637-0.252,3.078-0.756,4.324c-0.505,1.248-1.238,2.253-2.2,3.014c-0.722,0.568-1.544,0.976-2.464,1.222
				c-0.918,0.248-2.208,0.37-3.868,0.37H75.533z M79.192,291.048h2.993c1.732,0,2.987-0.446,3.765-1.341
				c0.775-0.895,1.163-2.347,1.163-4.356c0-2.002-0.361-3.471-1.085-4.411c-0.722-0.94-1.851-1.409-3.386-1.409h-3.45V291.048z"/>
			<path d="M92.135,294.364V276.37h8.723c1.962,0,3.415,0.419,4.361,1.258c0.943,0.838,1.417,2.121,1.417,3.847
				c0,1.101-0.229,2.017-0.69,2.749c-0.46,0.732-1.121,1.234-1.984,1.503c0.781,0.276,1.337,0.7,1.667,1.271
				c0.33,0.57,0.519,1.457,0.566,2.664l0.075,2.125c0,0.016,0,0.039,0,0.071c0.024,1.077,0.255,1.728,0.695,1.955v0.552h-4.055
				c-0.132-0.254-0.23-0.564-0.3-0.938c-0.068-0.369-0.112-0.812-0.128-1.323l-0.049-1.894c-0.041-1.117-0.25-1.871-0.63-2.26
				c-0.378-0.392-1.061-0.586-2.046-0.586h-3.921v7H92.135z M95.836,284.237h4.35c0.944,0,1.639-0.193,2.083-0.576
				c0.444-0.381,0.666-0.984,0.666-1.807c0-0.782-0.216-1.375-0.648-1.779c-0.432-0.402-1.075-0.604-1.93-0.604h-4.52V284.237z"/>
		</g>
		<g>
			<path d="M114.78,294.886v-17.77h6.539c1.062,0,1.871,0.051,2.424,0.156c0.556,0.104,1.051,0.275,1.484,0.519
				c0.724,0.393,1.279,0.978,1.665,1.748c0.386,0.772,0.579,1.679,0.579,2.716c0,0.99-0.193,1.86-0.579,2.617
				s-0.949,1.359-1.689,1.811c-0.426,0.257-0.926,0.439-1.501,0.548c-0.576,0.11-1.522,0.163-2.842,0.163h-3.667v7.492H114.78z
				 M117.193,285.246h4.054c1.407,0,2.389-0.226,2.95-0.675c0.559-0.451,0.839-1.225,0.839-2.316c0-1.053-0.278-1.811-0.834-2.27
				c-0.554-0.457-1.479-0.687-2.774-0.687h-4.234V285.246z"/>
			<path d="M129.618,277.04h7.088c1.15,0,1.996,0.049,2.539,0.145c0.542,0.098,1.026,0.258,1.458,0.484
				c0.771,0.412,1.356,0.984,1.756,1.721c0.402,0.736,0.602,1.6,0.602,2.592c0,0.963-0.21,1.785-0.633,2.467
				c-0.421,0.684-1.051,1.217-1.886,1.605c0.71,0.194,1.218,0.521,1.521,0.98c0.302,0.463,0.491,1.24,0.564,2.338l0.212,2.945
				c0.042,0.63,0.125,1.101,0.253,1.41c0.129,0.312,0.322,0.531,0.578,0.662v0.496h-2.868c-0.231-0.371-0.394-1.168-0.484-2.387
				v-0.074l-0.149-2.325c-0.083-1.194-0.344-1.97-0.783-2.325c-0.438-0.355-1.535-0.534-3.289-0.534h-4.023v7.646h-2.458V277.04z
				 M132.051,279.134v6.047h4.245c1.531,0,2.613-0.242,3.247-0.727c0.632-0.485,0.948-1.293,0.948-2.424
				c0-1.059-0.297-1.804-0.892-2.241c-0.597-0.436-1.697-0.655-3.303-0.655H132.051z"/>
			<path d="M144.667,285.724c0-2.871,0.748-5.117,2.245-6.733c1.495-1.618,3.567-2.425,6.213-2.425c2.638,0,4.701,0.805,6.19,2.42
				c1.487,1.613,2.233,3.859,2.233,6.738c0,2.874-0.746,5.119-2.233,6.736c-1.489,1.615-3.552,2.426-6.19,2.426
				c-2.646,0-4.718-0.811-6.213-2.426C145.415,290.843,144.667,288.598,144.667,285.724z M147.171,285.724
				c0,2.229,0.527,3.969,1.58,5.225c1.054,1.255,2.511,1.881,4.374,1.881c1.856,0,3.306-0.626,4.35-1.881
				c1.045-1.256,1.568-2.996,1.568-5.225c0-2.234-0.523-3.977-1.568-5.229c-1.044-1.252-2.494-1.877-4.35-1.877
				c-1.863,0-3.32,0.625-4.374,1.877C147.699,281.747,147.171,283.489,147.171,285.724z"/>
			<path d="M203.906,285.724c0-2.871,0.749-5.117,2.245-6.733c1.496-1.618,3.567-2.425,6.213-2.425c2.638,0,4.702,0.805,6.19,2.42
				c1.488,1.613,2.231,3.859,2.231,6.738c0,2.874-0.743,5.119-2.231,6.736c-1.489,1.615-3.552,2.426-6.19,2.426
				c-2.646,0-4.718-0.811-6.213-2.426C204.655,290.843,203.906,288.598,203.906,285.724z M206.411,285.724
				c0,2.229,0.527,3.969,1.58,5.225c1.052,1.255,2.512,1.881,4.374,1.881c1.856,0,3.306-0.626,4.351-1.881
				c1.045-1.256,1.568-2.996,1.568-5.225c0-2.234-0.523-3.977-1.568-5.229c-1.044-1.252-2.494-1.877-4.351-1.877
				c-1.862,0-3.322,0.625-4.374,1.877S206.411,283.489,206.411,285.724z"/>
			<path d="M162.577,288.568h2.351c-0.008,0.09-0.014,0.186-0.018,0.288c-0.004,0.102-0.004,0.254-0.004,0.458
				c0,1.192,0.223,2.056,0.673,2.589c0.448,0.537,1.169,0.803,2.166,0.803c0.621,0,1.135-0.109,1.542-0.329
				c0.409-0.222,0.732-0.563,0.968-1.029c0.106-0.222,0.18-0.528,0.227-0.924c0.044-0.397,0.068-1.063,0.068-2.001v-12.046h2.459
				v13.034c0,1.863-0.424,3.24-1.274,4.133c-0.848,0.895-2.161,1.342-3.939,1.342c-1.749,0-3.058-0.461-3.93-1.383
				c-0.874-0.924-1.311-2.311-1.311-4.162c0-0.204,0.001-0.363,0.006-0.473C162.564,288.759,162.57,288.658,162.577,288.568z"/>
			<path d="M175.817,294.886v-17.904h12.764v2.224h-10.357v5.349h9.567v2.09h-9.567v6.006h10.563v2.236H175.817z"/>
			<path d="M195.035,294.886v-15.739h-5.655v-2.177h13.755v2.177h-5.657v15.739H195.035z"/>
			<path d="M222.007,288.449h2.37c0.025,1.31,0.461,2.354,1.308,3.133c0.847,0.777,1.98,1.165,3.396,1.165
				c1.401,0,2.504-0.295,3.311-0.883c0.807-0.59,1.21-1.395,1.21-2.408c0-1.383-1.516-2.436-4.545-3.156
				c-0.181-0.041-0.32-0.074-0.417-0.1c-2.458-0.58-4.08-1.229-4.872-1.946c-0.79-0.717-1.184-1.733-1.184-3.052
				c0-1.613,0.589-2.909,1.767-3.888c1.181-0.978,2.75-1.469,4.706-1.469c1.998,0,3.57,0.515,4.716,1.543
				c1.147,1.026,1.729,2.438,1.745,4.229l-2.346,0.016c-0.082-1.213-0.494-2.144-1.235-2.791c-0.74-0.646-1.754-0.971-3.04-0.971
				c-1.205,0-2.166,0.266-2.887,0.794c-0.72,0.526-1.081,1.229-1.081,2.106c0,1.399,1.49,2.444,4.471,3.132
				c0.441,0.108,0.782,0.188,1.019,0.245l0.259,0.063c1.948,0.466,3.242,0.971,3.881,1.51c0.482,0.41,0.851,0.907,1.105,1.493
				c0.253,0.585,0.38,1.239,0.38,1.958c0,1.743-0.624,3.133-1.874,4.164c-1.248,1.031-2.938,1.549-5.066,1.549
				c-2.195,0-3.904-0.554-5.129-1.666C222.754,292.11,222.097,290.521,222.007,288.449z"/>
		</g>
	</g>
	<g>
		<path fill="#EC2227" d="M22.764,286.197c8.202,0,15.781,2.651,21.94,7.138l-21.771-21.311L0.001,293.952
			C6.301,289.093,14.192,286.197,22.764,286.197z"/>
		<path d="M45.69,298.212c8.202,0,15.781-2.654,21.94-7.14l-21.772,21.31l-22.931-21.926
			C29.228,295.314,37.119,298.212,45.69,298.212z"/>
	</g>
</g>
<g>
	<g>
		<polygon fill="#FFFFFF" points="123.631,212.906 117.059,206.334 117.059,168.09 109.555,168.09 109.555,202.791 75.372,167.959 
			32.059,211.412 28.059,206.455 75.361,157.896 103.346,186.445 103.346,161.881 123.268,161.881 123.268,203.586 127.593,207.91 
					"/>
	</g>
	<g>
		<path fill="#FFFFFF" d="M75,272.037c-41.355,0-75-33.645-75-75.002c0-41.354,33.645-75,75-75c41.354,0,75,33.647,75,75
			C150,238.393,116.355,272.037,75,272.037z M75,126.174c-39.073,0-70.861,31.789-70.861,70.861S35.928,267.898,75,267.898
			s70.86-31.791,70.86-70.863S114.073,126.174,75,126.174z"/>
	</g>
</g>
<g>
	<g>
		<g>
			<path fill="#FFFFFF" d="M249.264,239.484l-16.361-16.357c-0.15-0.152-0.314-0.291-0.483-0.418l2.897-3.051
				c0.146-0.15,0.287-0.307,0.416-0.467c3.846,1.453,8.359,0.635,11.451-2.457c2.254-2.254,3.391-5.375,3.117-8.561
				c-0.031-0.357-0.27-0.67-0.607-0.793c-0.342-0.123-0.721-0.039-0.977,0.217l-5.244,5.24l-5.309-1.336l-1.504-5.477l5.24-5.242
				c0.258-0.254,0.342-0.639,0.219-0.977c-0.123-0.342-0.436-0.578-0.797-0.609c-3.182-0.273-6.301,0.863-8.559,3.119
				c-3.09,3.088-3.906,7.6-2.456,11.443c-0.157,0.135-0.313,0.273-0.469,0.43l-4.266,4.092l-7.829-7.828
				c-0.097-0.098-0.202-0.186-0.311-0.268c0.093-0.158,0.182-0.326,0.265-0.498c1.653,0.318,4.679-2.902,7.246-5.471l-7.48-7.48
				c-3.347,3.346-5.788,5.594-5.472,7.244c-0.766,0.377-1.446,0.834-1.931,1.318l-1.053,1.051c-0.685,0.686-1.098,1.539-1.245,2.428
				c-0.103,0.115-0.205,0.238-0.31,0.369l-0.393,0.492c-0.011,0.014-0.046,0.063-0.055,0.074l-0.355,0.498
				c-0.224,0.299-0.416,0.619-0.606,0.932c-0.068,0.117-0.14,0.232-0.211,0.348c-0.012,0.02-0.023,0.039-0.033,0.057l-0.159,0.299
				c-0.19,0.361-0.389,0.73-0.56,1.139l-0.028,0.064c-0.199,0.479-0.404,0.967-0.55,1.488l-0.071,0.23
				c-0.058,0.182-0.114,0.369-0.169,0.59l-0.145,0.721c-0.108,0.449-0.145,0.896-0.178,1.285l-0.02,0.26
				c-0.055,0.408-0.038,0.793-0.024,1.133c0.005,0.113,0.01,0.225,0.014,0.375c0.003,0.063,0.003,0.125,0.006,0.186
				c0.005,0.15,0.007,0.324,0.036,0.504l0.093,0.584c0.02,0.113,0.036,0.221,0.049,0.328c0.036,0.236,0.073,0.482,0.144,0.717
				l0.382,1.326c0.12,0.404,0.503,0.67,0.922,0.643c0.223-0.016,0.422-0.113,0.569-0.264c0.133-0.133,0.224-0.305,0.254-0.504
				l0.197-1.348c0.015-0.105,0.062-0.264,0.109-0.43c0.033-0.117,0.066-0.23,0.091-0.334l0.142-0.502
				c0.016-0.07,0.052-0.135,0.08-0.203c0.028-0.066,0.056-0.129,0.08-0.193c0.048-0.105,0.092-0.215,0.136-0.322
				c0.087-0.219,0.169-0.42,0.295-0.619c0.055-0.09,0.105-0.184,0.157-0.275c0.132-0.234,0.254-0.455,0.402-0.641
				c0.01-0.01,0.02-0.021,0.028-0.035l0.333-0.457c0.068-0.086,0.145-0.168,0.219-0.25c0.053-0.061,0.105-0.117,0.172-0.191
				c0.195-0.238,0.428-0.445,0.65-0.646l0.119-0.107c0.165-0.152,0.356-0.299,0.557-0.449c0.083-0.061,0.163-0.123,0.242-0.184
				c0.102-0.066,0.199-0.131,0.297-0.197c0.182-0.123,0.338-0.227,0.521-0.322l0.394-0.223l0.399-0.197
				c0.14-0.072,0.275-0.127,0.402-0.178c0.075-0.031,0.148-0.063,0.217-0.092c0.07-0.023,0.139-0.049,0.202-0.074
				c0.087-0.029,0.159-0.063,0.259-0.088l0.108-0.023c0.118,0.189,0.257,0.369,0.419,0.537l7.748,7.746l-16.537,15.881
				c-0.006,0.008-0.013,0.014-0.019,0.018c-2.059,2.057-2.393,5.072-0.333,7.131c2.058,2.057,4.879,1.531,6.936-0.527
				c0.01-0.008,0.019-0.02,0.024-0.027l14.589-15.359c0.086,0.102,0.171,0.201,0.266,0.299l16.356,16.357
				c1.832,1.834,4.807,1.834,6.641,0C251.094,244.291,251.094,241.316,249.264,239.484z M209.253,243.158
				c-0.757,0.758-1.986,0.758-2.743,0c-0.758-0.76-0.758-1.988,0-2.746c0.757-0.758,1.986-0.76,2.743,0
				C210.009,241.17,210.009,242.398,209.253,243.158z"/>
		</g>
	</g>
	<g>
		<path fill="#FFFFFF" d="M225.896,272.039c-41.355,0-75-33.646-75-75.004c0-41.354,33.645-75,75-75
			c41.354,0,74.999,33.647,74.999,75C300.895,238.393,267.25,272.039,225.896,272.039z M225.896,126.175
			c-39.072,0-70.861,31.79-70.861,70.86c0,39.076,31.789,70.863,70.861,70.863c39.071,0,70.86-31.787,70.86-70.863
			C296.756,157.965,264.967,126.175,225.896,126.175z"/>
	</g>
	<g>
		<polygon fill="#FFFFFF" points="180.698,208.977 187.469,202.205 187.469,162.818 195.195,162.818 195.195,198.559 230.4,162.686 
			275.008,207.438 279.129,202.33 230.411,152.322 201.59,181.725 201.59,156.426 181.072,156.426 181.072,199.377 176.618,203.83 
					"/>
	</g>
</g>
<g>
	<circle opacity="0.2" cx="313.769" cy="92.5" r="12.5"/>
	<path fill="#FFFFFF" d="M314.068,92.682c0,3.646,1.179,7.014,3.173,9.751l-9.471-9.676l9.744-10.19
		C315.355,85.366,314.068,88.873,314.068,92.682z"/>
</g>
</svg>
